<svg id="Layer_1" xmlns="http://www.w3.org/2000/svg" xmlns:xlink="http://www.w3.org/1999/xlink" viewBox="494 -54 1600 900"><style>.st0{fill:#009688;} .st1{clip-path:url(#SVGID_2_);} .st2{fill:#424242;} .st3{clip-path:url(#SVGID_2_);fill:#00897B;} .st4{fill:#D3D3D3;} .st5{fill:#BDBDBD;} .st6{fill:#E5E5E5;} .st7{fill:#F2F2F2;} .st8{fill:#4DB6AC;} .st9{fill:#FFFFFF;stroke:#FFFFFF;stroke-width:2.7812;stroke-linecap:round;stroke-linejoin:round;stroke-miterlimit:10;} .st10{fill:#FFFFFF;} .st11{fill:#4DB6AC;stroke:#FFFFFF;stroke-width:2.8849;stroke-linecap:round;stroke-linejoin:round;stroke-miterlimit:10;} .st12{fill:#FFFFFF;stroke:#FFFFFF;stroke-width:1.8465;stroke-linecap:round;stroke-linejoin:round;stroke-miterlimit:10;} .st13{clip-path:url(#SVGID_2_);fill:#E0E0E0;} .st14{fill:#616161;} .st15{clip-path:url(#SVGID_2_);fill:#E5E5E5;} .st16{fill:#FFFFFF;stroke:#FFFFFF;stroke-width:4.1331;stroke-linecap:round;stroke-linejoin:round;stroke-miterlimit:10;} .st17{fill:#4DB6AC;stroke:#FFFFFF;stroke-width:4.2873;stroke-linecap:round;stroke-linejoin:round;stroke-miterlimit:10;} .st18{fill:#FFFFFF;stroke:#FFFFFF;stroke-width:2.7441;stroke-linecap:round;stroke-linejoin:round;stroke-miterlimit:10;} .st19{fill:#CCCCCC;} .st20{fill:#C6DAFC;} .st21{fill:#EA4335;} .st22{fill:#4285F4;} .st23{fill:#FBBC05;} .st24{fill:#34A853;} .st25{fill:#CECECE;} .st26{fill:#E0E0E0;} .st27{fill:#FFFFFF;stroke:#FFFFFF;stroke-width:3.0063;stroke-linecap:round;stroke-linejoin:round;stroke-miterlimit:10;} .st28{fill:#4DB6AC;stroke:#FFFFFF;stroke-width:3.1184;stroke-linecap:round;stroke-linejoin:round;stroke-miterlimit:10;} .st29{fill:#FFFFFF;stroke:#FFFFFF;stroke-width:1.996;stroke-linecap:round;stroke-linejoin:round;stroke-miterlimit:10;}</style><path class="st0" d="M494-54h1600v900H494z" id="Background"/><defs><path id="SVGID_1_" d="M494-54h1600v900H494z"/></defs><clipPath id="SVGID_2_"><use xlink:href="#SVGID_1_" overflow="visible"/></clipPath><path class="st1 st2" d="M1368.5 132.6h-156c-6.4 0-11.7-5.8-11.7-12.5s5.3-12.5 11.7-12.5h156c6.4 0 11.7 5.8 11.7 12.5s-5.3 12.5-11.7 12.5z"/><path class="st3" d="M1953.5 46c-15.4-6.6-91.3-7.9-162-7.9-10.4 0-20.9 0-31.4.1v750.3c10.4.1 21 .1 31.4.1 70.6 0 146.5-1 162-7.7 16-6.9 33.6-19.9 33.6-45.4V92.4c0-25.5-17.6-39.5-33.6-46.4z"/><g class="st1"><path class="st4" d="M1748.8 46.4H838.5c-6.4 0-11.7 5.2-11.7 11.7v67.7h933.6V58.1c.1-6.5-5.2-11.7-11.6-11.7z"/><circle class="st5" cx="874.1" cy="83.6" r="10.9"/><circle class="st5" cx="907.7" cy="83.6" r="10.9"/><circle class="st5" cx="940.5" cy="83.6" r="10.9"/><g><path class="st6" d="M826.8 126h933.4v733.6H826.8z"/><path class="st7" d="M1070.5 274.8h498.7v508.4h-498.7z"/><path class="st8" d="M826.8 126h241.5v124.3H826.8z"/><path class="st9" d="M957.8 160.9c0-5.4-10.2-17.2-10.2-17.2s-10.2 10.3-10.2 17.9v34.6h20.4v-35.3z"/><circle class="st8" cx="947.8" cy="157.2" r="3.7"/><circle class="st8" cx="947.8" cy="168.2" r="3.7"/><path class="st10" d="M933.3 197.3v-18.9c-4.7 0-8.6 3.1-8.6 6.8v20c0 3.1 8.6 12 8.6 12v-19.9zM961.9 197.3v-18.9c4.7 0 8.6 3.1 8.6 6.8v20c0 3.1-8.6 12-8.6 12v-19.9zM944.2 200.4h7.3V212h-7.3z"/><path class="st11" d="M955.9 218.2c0 5.6-8.1 14.4-8.1 14.4s-8.1-8.8-8.1-14.4 3.6-9.5 8.1-9.5 8.1 3.9 8.1 9.5z"/><path class="st12" d="M953 214.8c0 3.6-5.2 9.2-5.2 9.2s-5.2-5.6-5.2-9.2 2.3-6.1 5.2-6.1c2.9 0 5.2 2.5 5.2 6.1z"/><path class="st10" d="M1068.3 126h540.3v124.3h-540.3z"/></g></g><path class="st13" d="M1629.6 46c-16 6.9-34.6 20.9-34.6 46.4v643.1c0 25.5 18.6 38.5 34.6 45.4 13.1 5.6 70.3 7.3 130.6 7.6V38.2c-60.3.4-117.4 2.1-130.6 7.8z"/><path class="st1 st14" d="M1923.5 14.1c-15.6-6.7-92.2-8-163.5-8s-148 1.3-163.5 8c-16.2 7-34.9 21.1-34.9 46.9v649.3c0 25.7 18.7 38.9 34.9 45.9 15.6 6.7 92.2 7.8 163.5 7.8s148-1 163.5-7.8c16.2-7 33.9-20.1 33.9-45.9V60.9c0-25.7-17.7-39.9-33.9-46.8zm16 695h-359V70.9h359v638.2z"/><circle class="st1 st2" cx="1877.6" cy="30.1" r="7.1"/><path class="st1 st2" d="M1804.4 37.3h-88.8c-3.6 0-6.7-3.3-6.7-7.1s3-7.1 6.7-7.1h88.8c3.6 0 6.7 3.3 6.7 7.1s-3 7.1-6.7 7.1zM1686.8 37.3h-15.9c-3.4 0-6-3.3-6-7.1s2.7-7.1 6-7.1h15.9c3.4 0 6 3.3 6 7.1s-2.6 7.1-6 7.1z"/><path class="st15" d="M1580.5 70.8h358.9v639.6h-358.9z"/><path class="st1 st2" d="M1804.4 748.1h-88.8c-3.6 0-6.7-3.3-6.7-7.1s3-7.1 6.7-7.1h88.8c3.6 0 6.7 3.3 6.7 7.1s-3 7.1-6.7 7.1z"/><g class="st1"><path class="st8" d="M1580.5 70.8h358.9v184.7h-358.9z"/><path class="st16" d="M1775.1 122.6c-.1-8-15.1-25.6-15.1-25.6s-15.1 15.4-15.1 26.6v51.3h30.3l-.1-52.3z"/><circle class="st8" cx="1760.3" cy="117.2" r="5.4"/><circle class="st8" cx="1760.3" cy="133.5" r="5.4"/><path class="st10" d="M1738.8 176.8v-28c-7.1 0-12.8 4.6-12.8 10.1v29.7c0 4.6 12.8 17.9 12.8 17.9v-29.7zM1781.2 176.8v-28c7.1 0 12.8 4.6 12.8 10.1v29.7c0 4.6-12.8 17.9-12.8 17.9v-29.7zM1754.9 181.4h10.9v17.2h-10.9z"/><path class="st17" d="M1772.4 207.8c0 8.4-12 21.5-12 21.5s-12-13.1-12-21.5 5.4-14.1 12-14.1 12 5.8 12 14.1z"/><path class="st18" d="M1768 202.8c0 5.4-7.7 13.7-7.7 13.7s-7.7-8.4-7.7-13.7 3.5-9 7.7-9 7.7 3.6 7.7 9z"/></g><g class="st1"><path class="st19" d="M1605.5 430.2h308.7v255.5h-308.7zM1605.5 280.4h154.1v25.2h-154.1z"/><path class="st10" d="M1605.5 330.8h308.7v74.6h-308.7z"/><path class="st20" d="M1681.5 358.6H1884v18.9h-202.5z"/><path class="st21" d="M1622.8 359.9l6.3 4.9c1.6-4.7 5.9-8.1 11.1-8.1 3.7 0 6.1 1.6 7.5 2.9l5.5-5.4c-3.4-3.1-7.8-5.1-13-5.1-7.6.1-14.2 4.4-17.4 10.8z"/><path class="st22" d="M1640.2 365.1v7.2h10.7c-.2 1.8-1.4 4.5-4 6.3l6.1 4.8c3.7-3.4 5.8-8.4 5.8-14.3 0-1.6-.1-2.8-.4-4h-18.2z"/><path class="st23" d="M1629.1 364.8l-6.3-4.9c-1.3 2.6-2.1 5.6-2.1 8.7s.8 6.1 2.1 8.7l6.3-4.9c-.4-1.2-.6-2.5-.6-3.8s.2-2.6.6-3.8z"/><path class="st24" d="M1640.2 380.5c-5.1 0-9.5-3.4-11.1-8.1l-6.3 4.9c3.2 6.4 9.7 10.7 17.3 10.7 5.2 0 9.7-1.7 12.9-4.7l-6.1-4.8c-1.6 1.2-3.8 2-6.7 2z"/></g><g class="st1"><path class="st25" d="M1422.4 482c0-14.2-11.6-25.9-25.9-25.9H631.1c-14.2 0-25.9 11.6-25.9 25.9v301.9h817.2V482z"/><path class="st26" d="M605.3 783.2v220c0 14.2 11.6 25.9 25.9 25.9h765.3c14.2 0 25.9-11.6 25.9-25.9v-220H605.3z"/><path class="st14" d="M1393.2 451.4v497.3c0 14.4-11.8 26.3-26.3 26.3H602.3c-14.4 0-26.3-11.8-26.3-26.3V451.4c0-14.4 11.8-26.3 26.3-26.3H1367c14.4 0 26.2 11.8 26.2 26.3z"/><path class="st6" d="M657.6 454.2h656v491.6h-656z"/><path class="st2" d="M576.1 618.9l5.6 1.5c1.1.3 1.9.9 1.9 1.9v155.4c0 1.1-.9 1.6-1.9 1.9l-5.6 1.5V618.9zM1393.2 781.2l-5.6-1.5c-1.1-.3-1.9-.9-1.9-1.9V622.4c0-1.1.9-1.6 1.9-1.9l5.6-1.5v162.2zM629.1 694.6c-3.9-.7-7.3 2.6-6.5 6.5.4 2.2 2.2 3.9 4.4 4.4 3.9.7 7.3-2.6 6.5-6.5-.5-2.2-2.3-4-4.4-4.4z"/><path class="st8" d="M657.4 454.2h656v141.4h-656z"/><path class="st27" d="M995.7 495.4c0-5.8-11-18.6-11-18.6s-11 11.2-11 19.4v37.3h22v-38.1z"/><circle class="st8" cx="984.9" cy="491.5" r="4"/><circle class="st8" cx="984.9" cy="503.3" r="4"/><path class="st10" d="M969.2 534.8v-20.4c-5.1 0-9.3 3.3-9.3 7.4v21.6c0 3.3 9.3 13 9.3 13v-21.6zM1000.1 534.8v-20.4c5.1 0 9.3 3.3 9.3 7.4v21.6c0 3.3-9.3 13-9.3 13v-21.6zM980.9 538.2h7.9v12.5h-7.9z"/><path class="st28" d="M993.7 557.4c0 6.1-8.8 15.6-8.8 15.6s-8.8-9.5-8.8-15.6 3.9-10.3 8.8-10.3 8.8 4.2 8.8 10.3z"/><path class="st29" d="M990.5 553.7c0 3.9-5.6 10-5.6 10s-5.6-6.1-5.6-10 2.5-6.6 5.6-6.6c3.1 0 5.6 2.7 5.6 6.6z"/><path class="st19" d="M814.5 729.8h341.3v132.3H814.5z"/><g><path class="st10" d="M814.1 620.8H1162v84.1H814.1z"/><path class="st20" d="M899.8 652.2H1128v21.3H899.8z"/><path class="st21" d="M833.6 653.6l7.1 5.5c1.8-5.3 6.7-9.1 12.5-9.1 4.1 0 6.9 1.8 8.5 3.3l6.2-6c-3.8-3.5-8.7-5.7-14.7-5.7-8.6-.1-16 4.8-19.6 12z"/><path class="st22" d="M853.2 659.4v8.1h12.1c-.2 2-1.6 5.1-4.5 7.1l6.9 5.4c4.1-3.8 6.5-9.4 6.5-16.1 0-1.8-.1-3.1-.5-4.5h-20.5z"/><path class="st23" d="M840.7 659.1l-7.1-5.5c-1.5 3-2.3 6.3-2.3 9.8s.9 6.9 2.3 9.8l7.1-5.5c-.5-1.4-.7-2.8-.7-4.3s.3-2.9.7-4.3z"/><path class="st24" d="M853.2 676.9c-5.8 0-10.7-3.8-12.5-9.1l-7.1 5.5c3.6 7.2 11 12.1 19.5 12.1 5.9 0 10.9-1.9 14.5-5.3l-6.9-5.4c-1.8 1.3-4.2 2.2-7.5 2.2z"/></g></g><g><path class="st10" d="M1164.8 323.2h347.9v84.1h-347.9z"/><path class="st20" d="M1250.5 354.5h228.2v21.3h-228.2z"/><path class="st21" d="M1184.3 356l7.1 5.5c1.8-5.3 6.7-9.1 12.5-9.1 4.1 0 6.9 1.8 8.5 3.3l6.2-6c-3.8-3.5-8.7-5.7-14.7-5.7-8.6-.1-16 4.8-19.6 12z"/><path class="st22" d="M1203.9 361.8v8.1h12.1c-.2 2-1.6 5.1-4.5 7.1l6.9 5.4c4.1-3.8 6.5-9.4 6.5-16.1 0-1.8-.1-3.1-.5-4.5h-20.5z"/><path class="st23" d="M1191.4 361.5l-7.1-5.5c-1.5 3-2.3 6.3-2.3 9.8s.9 6.9 2.3 9.8l7.1-5.5c-.5-1.4-.7-2.8-.7-4.3s.2-3 .7-4.3z"/><path class="st24" d="M1203.9 379.2c-5.8 0-10.7-3.8-12.5-9.1l-7.1 5.5c3.6 7.2 11 12.1 19.5 12.1 5.9 0 10.9-1.9 14.5-5.3l-6.9-5.4c-1.8 1.3-4.3 2.2-7.5 2.2z"/></g></svg>